<svg width="63" height="60" viewBox="0 0 63 60" fill="none" xmlns="http://www.w3.org/2000/svg">
<path d="M0 12.6666H16.6801C19.5849 12.6666 21.0373 12.6666 22.1067 13.4733C23.1761 14.2801 23.5749 15.6766 24.3726 18.4698L30.7932 40.9527C31.5908 43.7458 31.9897 45.1424 33.0591 45.9492C34.1285 46.7559 35.5809 46.7559 38.4857 46.7559H58.4108M58.4108 46.7559L48.6757 36.5291M58.4108 46.7559L48.6757 56.9827" stroke="#33363F" stroke-width="6"/>
<path fill-rule="evenodd" clip-rule="evenodd" d="M60.5837 10.5981L50.8486 0.371338L46.5028 4.50822L51.4131 9.66659H38.4857L38.3393 9.66658C37.0132 9.66642 35.7715 9.66626 34.7347 9.78786C33.5811 9.92314 32.3683 10.2366 31.2523 11.0784C30.4637 11.6734 29.9156 12.3873 29.5042 13.1333C29.9143 14.2001 30.2572 15.4028 30.5598 16.4642L30.6227 16.6849L32.5228 23.3383L33.6779 19.2936C34.0963 17.8284 34.3435 16.9802 34.5933 16.3809C34.7062 16.11 34.7862 15.976 34.8293 15.9141C34.8491 15.8855 34.8603 15.8736 34.8624 15.8713L34.8641 15.8696L34.8658 15.8683L34.8659 15.8682C34.8675 15.867 34.8676 15.867 34.8697 15.8658C34.8724 15.8644 34.887 15.857 34.9199 15.8457C34.9912 15.8213 35.1421 15.7812 35.4335 15.747C36.0784 15.6714 36.9619 15.6666 38.4857 15.6666H51.4131L46.5028 20.825L50.8486 24.9618L60.5837 14.735L62.5527 12.6666L60.5837 10.5981ZM25.6616 46.2893C25.2514 45.2224 24.9086 44.0198 24.606 42.9584L24.5431 42.7376L22.643 36.0842L21.4879 40.129C21.0695 41.5941 20.8223 42.4423 20.5725 43.0417C20.4596 43.3125 20.3796 43.4465 20.3365 43.5085C20.3167 43.537 20.3055 43.549 20.3034 43.5512C20.3017 43.553 20.3016 43.553 20.3 43.5543L20.2999 43.5543C20.2983 43.5555 20.2982 43.5556 20.2961 43.5567C20.2933 43.5581 20.2788 43.5656 20.2459 43.5768C20.1745 43.6012 20.0237 43.6413 19.7322 43.6755C19.0873 43.7512 18.2039 43.756 16.6801 43.756H0V49.756H16.6801L16.8265 49.756H16.8268C18.1528 49.7561 19.3944 49.7563 20.4311 49.6347C21.5846 49.4994 22.7975 49.186 23.9134 48.3441C24.7021 47.7492 25.2502 47.0352 25.6616 46.2893Z" fill="#33363F"/>
</svg>
